<svg width="167" height="91" viewBox="0 0 167 91" fill="none" xmlns="http://www.w3.org/2000/svg">
<path fill-rule="evenodd" clip-rule="evenodd" d="M46 83H129C132.866 83 136 79.866 136 76C136 72.134 132.866 69 129 69C129 69 123 65.866 123 62C123 58.134 126.952 55 131.826 55H142C145.866 55 149 51.866 149 48C149 44.134 145.866 41 142 41H120C123.866 41 127 37.866 127 34C127 30.134 123.866 27 120 27H160C163.866 27 167 23.866 167 20C167 16.134 163.866 13 160 13H62C58.134 13 55 16.134 55 20C55 23.866 58.134 27 62 27H22C18.134 27 15 30.134 15 34C15 37.866 18.134 41 22 41H47C50.866 41 54 44.134 54 48C54 51.866 50.866 55 47 55H7C3.13401 55 0 58.134 0 62C0 65.866 3.13401 69 7 69H46C42.134 69 39 72.134 39 76C39 79.866 42.134 83 46 83ZM153 48C153 51.866 156.134 55 160 55C163.866 55 167 51.866 167 48C167 44.134 163.866 41 160 41C156.134 41 153 44.134 153 48Z" fill="#E7F3FE"/>
<path fill-rule="evenodd" clip-rule="evenodd" d="M71.1186 61.3066C71.0404 61.8599 71 62.4252 71 63C71 69.6274 76.3726 75 83 75C89.6274 75 95 69.6274 95 63C95 62.4252 94.9596 61.8599 94.8815 61.3066H124V88C124 89.6569 122.657 91 121 91H45C43.3431 91 42 89.6569 42 88V61.3066H71.1186Z" fill="white"/>
<path fill-rule="evenodd" clip-rule="evenodd" d="M96 61C96 68.1797 90.1797 74 83 74C75.8203 74 70 68.1797 70 61C70 60.7674 70.0061 60.5362 70.0182 60.3066H42L51.5604 32.0389C51.9726 30.8202 53.1159 30 54.4023 30L111.598 30C112.884 30 114.027 30.8202 114.44 32.0389L124 60.3066H95.9818C95.9939 60.5362 96 60.7674 96 61Z" fill="white"/>
<path fill-rule="evenodd" clip-rule="evenodd" d="M94.0976 61.9545C94.0976 67.5025 89.129 73 83 73C76.871 73 71.9024 67.5025 71.9024 61.9545C71.9024 61.7748 71.9077 60.5962 71.918 60.4188H51L59.1614 40.5755C59.5132 39.6338 60.4891 39 61.5873 39H104.413C105.511 39 106.487 39.6338 106.839 40.5755L115 60.4188H94.082C94.0923 60.5962 94.0976 61.7748 94.0976 61.9545Z" fill="#E8F0FE"/>
<path d="M52.7446 32.4393C52.985 31.7285 53.6519 31.25 54.4023 31.25H111.598C112.348 31.25 113.015 31.7285 113.255 32.4393L122.75 60.5123V87C122.75 87.9665 121.966 88.75 121 88.75H45C44.0335 88.75 43.25 87.9665 43.25 87V60.5123L52.7446 32.4393Z" stroke="#41A2F9" stroke-width="2.5" stroke-linejoin="round"/>
<path d="M56 58.75H57.25C57.25 58.0596 56.6904 57.5 56 57.5V58.75ZM56 61.25V62.5C56.6904 62.5 57.25 61.9404 57.25 61.25H56ZM56.0001 61.25L54.7501 61.2501C54.7501 61.9404 55.3097 62.5 56.0001 62.5V61.25ZM69.2627 61.3307L69.8296 60.2167L69.8296 60.2167L69.2627 61.3307ZM69.2974 61.3575L68.1888 61.9351L68.189 61.9354L69.2974 61.3575ZM69.2985 61.3597L68.2104 61.9749L68.2104 61.9749L69.2985 61.3597ZM69.3529 61.5656L68.1139 61.7311V61.7311L69.3529 61.5656ZM96.4417 61.5655L97.6807 61.7311L97.6807 61.7311L96.4417 61.5655ZM96.496 61.3597L97.5841 61.9749L97.5851 61.9731L96.496 61.3597ZM96.4972 61.3575L95.3888 60.7795L95.3878 60.7816L96.4972 61.3575ZM96.5318 61.3307L97.0987 62.4448L97.0987 62.4448L96.5318 61.3307ZM94.3198 60.1293L93.2316 59.514L93.2316 59.514L94.3198 60.1293ZM93.9232 61.9541L95.1732 61.9494V61.9494L93.9232 61.9541ZM71.8713 61.9541L73.1213 61.9587V61.9587L71.8713 61.9541ZM71.4748 60.1293L72.5629 59.514V59.514L71.4748 60.1293ZM56.0001 58.75V57.5C55.3097 57.5 54.7501 58.0596 54.7501 58.7499L56.0001 58.75ZM48.5737 57.5C47.193 57.5 46.0737 58.6193 46.0737 60H48.5737V57.5ZM51 57.5H48.5737V60H51V57.5ZM53.5 60C53.5 58.6193 52.3807 57.5 51 57.5V60H53.5ZM51 62.5C52.3807 62.5 53.5 61.3807 53.5 60H51V62.5ZM48.5737 62.5H51V60H48.5737V62.5ZM46.0737 60C46.0737 61.3807 47.193 62.5 48.5737 62.5V60H46.0737ZM56 57.5C54.6193 57.5 53.5 58.6193 53.5 60H56V57.5ZM57.25 60V58.75H54.75V60H57.25ZM57.25 61.25V60H54.75V61.25H57.25ZM53.5 60C53.5 61.3807 54.6193 62.5 56 62.5V60H53.5ZM54.75 60.0001L54.7501 61.2501L57.2501 61.2499L57.25 59.9999L54.75 60.0001ZM56.0001 62.5H56.0003V60H56.0001V62.5ZM56.0003 62.5H56.0006V60H56.0003V62.5ZM56.0006 62.5H56.0011V60H56.0006V62.5ZM56.0011 62.5H56.0017V60H56.0011V62.5ZM56.0017 62.5H56.0024V60H56.0017V62.5ZM56.0024 62.5H56.0033V60H56.0024V62.5ZM56.0033 62.5H56.0043V60H56.0033V62.5ZM56.0043 62.5H56.0054V60H56.0043V62.5ZM56.0054 62.5H56.0067V60H56.0054V62.5ZM56.0067 62.5H56.0081V60H56.0067V62.5ZM56.0081 62.5H56.0097V60H56.0081V62.5ZM56.0097 62.5H56.0113V60H56.0097V62.5ZM56.0113 62.5H56.0131V60H56.0113V62.5ZM56.0131 62.5H56.0151V60H56.0131V62.5ZM56.0151 62.5H56.0171V60H56.0151V62.5ZM56.0171 62.5H56.0193V60H56.0171V62.5ZM56.0193 62.5H56.0217V60H56.0193V62.5ZM56.0217 62.5H56.0241V60H56.0217V62.5ZM56.0241 62.5H56.0267V60H56.0241V62.5ZM56.0267 62.5H56.0295V60H56.0267V62.5ZM56.0295 62.5H56.0323V60H56.0295V62.5ZM56.0323 62.5H56.0353V60H56.0323V62.5ZM56.0353 62.5H56.0384V60H56.0353V62.5ZM56.0384 62.5H56.0417V60H56.0384V62.5ZM56.0417 62.5H56.045V60H56.0417V62.5ZM56.045 62.5H56.0485V60H56.045V62.5ZM56.0485 62.5H56.0522V60H56.0485V62.5ZM56.0522 62.5H56.0559V60H56.0522V62.5ZM56.0559 62.5H56.0598V60H56.0559V62.5ZM56.0598 62.5H56.0638V60H56.0598V62.5ZM56.0638 62.5H56.068V60H56.0638V62.5ZM56.068 62.5H56.0723V60H56.068V62.5ZM56.0723 62.5H56.0767V60H56.0723V62.5ZM56.0767 62.5H56.0812V60H56.0767V62.5ZM56.0812 62.5H56.0859V60H56.0812V62.5ZM56.0859 62.5H56.0906V60H56.0859V62.5ZM56.0906 62.5H56.0955V60H56.0906V62.5ZM56.0955 62.5H56.1006V60H56.0955V62.5ZM56.1006 62.5H56.1058V60H56.1006V62.5ZM56.1058 62.5H56.111V60H56.1058V62.5ZM56.111 62.5H56.1165V60H56.111V62.5ZM56.1165 62.5H56.122V60H56.1165V62.5ZM56.122 62.5H56.1277V60H56.122V62.5ZM56.1277 62.5H56.1335V60H56.1277V62.5ZM56.1335 62.5H56.1394V60H56.1335V62.5ZM56.1394 62.5H56.1454V60H56.1394V62.5ZM56.1454 62.5H56.1516V60H56.1454V62.5ZM56.1516 62.5H56.1579V60H56.1516V62.5ZM56.1579 62.5H56.1643V60H56.1579V62.5ZM56.1643 62.5H56.1709V60H56.1643V62.5ZM56.1709 62.5H56.1775V60H56.1709V62.5ZM56.1775 62.5H56.1843V60H56.1775V62.5ZM56.1843 62.5H56.1912V60H56.1843V62.5ZM56.1912 62.5H56.1983V60H56.1912V62.5ZM56.1983 62.5H56.2054V60H56.1983V62.5ZM56.2054 62.5H56.2127V60H56.2054V62.5ZM56.2127 62.5H56.2201V60H56.2127V62.5ZM56.2201 62.5H56.2276V60H56.2201V62.5ZM56.2276 62.5H56.2353V60H56.2276V62.5ZM56.2353 62.5H56.243V60H56.2353V62.5ZM56.243 62.5H56.2509V60H56.243V62.5ZM56.2509 62.5H56.2589V60H56.2509V62.5ZM56.2589 62.5H56.2671V60H56.2589V62.5ZM56.2671 62.5H56.2753V60H56.2671V62.5ZM56.2753 62.5H56.2837V60H56.2753V62.5ZM56.2837 62.5H56.2922V60H56.2837V62.5ZM56.2922 62.5H56.3008V60H56.2922V62.5ZM56.3008 62.5H56.3096V60H56.3008V62.5ZM56.3096 62.5H56.3184V60H56.3096V62.5ZM56.3184 62.5H56.3274V60H56.3184V62.5ZM56.3274 62.5H56.3365V60H56.3274V62.5ZM56.3365 62.5H56.3457V60H56.3365V62.5ZM56.3457 62.5H56.355V60H56.3457V62.5ZM56.355 62.5H56.3645V60H56.355V62.5ZM56.3645 62.5H56.3741V60H56.3645V62.5ZM56.3741 62.5H56.3838V60H56.3741V62.5ZM56.3838 62.5H56.3936V60H56.3838V62.5ZM56.3936 62.5H56.4035V60H56.3936V62.5ZM56.4035 62.5H56.4135V60H56.4035V62.5ZM56.4135 62.5H56.4237V60H56.4135V62.5ZM56.4237 62.5H56.434V60H56.4237V62.5ZM56.434 62.5H56.4444V60H56.434V62.5ZM56.4444 62.5H56.4549V60H56.4444V62.5ZM56.4549 62.5H56.4655V60H56.4549V62.5ZM56.4655 62.5H56.4762V60H56.4655V62.5ZM56.4762 62.5H56.4871V60H56.4762V62.5ZM56.4871 62.5H56.4981V60H56.4871V62.5ZM56.4981 62.5H56.5092V60H56.4981V62.5ZM56.5092 62.5H56.5204V60H56.5092V62.5ZM56.5204 62.5H56.5317V60H56.5204V62.5ZM56.5317 62.5H56.5431V60H56.5317V62.5ZM56.5431 62.5H56.5547V60H56.5431V62.5ZM56.5547 62.5H56.5663V60H56.5547V62.5ZM56.5663 62.5H56.5781V60H56.5663V62.5ZM56.5781 62.5H56.59V60H56.5781V62.5ZM56.59 62.5H56.602V60H56.59V62.5ZM56.602 62.5H56.6141V60H56.602V62.5ZM56.6141 62.5H56.6264V60H56.6141V62.5ZM56.6264 62.5H56.6387V60H56.6264V62.5ZM56.6387 62.5H56.6512V60H56.6387V62.5ZM56.6512 62.5H56.6638V60H56.6512V62.5ZM56.6638 62.5H56.6765V60H56.6638V62.5ZM56.6765 62.5H56.6892V60H56.6765V62.5ZM56.6892 62.5H56.7022V60H56.6892V62.5ZM56.7022 62.5H56.7152V60H56.7022V62.5ZM56.7152 62.5H56.7283V60H56.7152V62.5ZM56.7283 62.5H56.7416V60H56.7283V62.5ZM56.7416 62.5H56.7549V60H56.7416V62.5ZM56.7549 62.5H56.7684V60H56.7549V62.5ZM56.7684 62.5H56.782V60H56.7684V62.5ZM56.782 62.5H56.7956V60H56.782V62.5ZM56.7956 62.5H56.8094V60H56.7956V62.5ZM56.8094 62.5H56.8234V60H56.8094V62.5ZM56.8234 62.5H56.8374V60H56.8234V62.5ZM56.8374 62.5H56.8515V60H56.8374V62.5ZM56.8515 62.5H56.8657V60H56.8515V62.5ZM56.8657 62.5H56.8801V60H56.8657V62.5ZM56.8801 62.5H56.8945V60H56.8801V62.5ZM56.8945 62.5H56.9091V60H56.8945V62.5ZM56.9091 62.5H56.9238V60H56.9091V62.5ZM56.9238 62.5H56.9386V60H56.9238V62.5ZM56.9386 62.5H56.9535V60H56.9386V62.5ZM56.9535 62.5H56.9684V60H56.9535V62.5ZM56.9684 62.5H56.9836V60H56.9684V62.5ZM56.9836 62.5H56.9988V60H56.9836V62.5ZM56.9988 62.5H57.0141V60H56.9988V62.5ZM57.0141 62.5H57.0295V60H57.0141V62.5ZM57.0295 62.5H57.045V60H57.0295V62.5ZM57.045 62.5H57.0607V60H57.045V62.5ZM57.0607 62.5H57.0764V60H57.0607V62.5ZM57.0764 62.5H57.0923V60H57.0764V62.5ZM57.0923 62.5H57.1082V60H57.0923V62.5ZM57.1082 62.5H57.1243V60H57.1082V62.5ZM57.1243 62.5H57.1405V60H57.1243V62.5ZM57.1405 62.5H57.1567V60H57.1405V62.5ZM57.1567 62.5H57.1731V60H57.1567V62.5ZM57.1731 62.5H57.1896V60H57.1731V62.5ZM57.1896 62.5H57.2062V60H57.1896V62.5ZM57.2062 62.5H57.2229V60H57.2062V62.5ZM57.2229 62.5H57.2397V60H57.2229V62.5ZM57.2397 62.5H57.2566V60H57.2397V62.5ZM57.2566 62.5H57.2736V60H57.2566V62.5ZM57.2736 62.5H57.2907V60H57.2736V62.5ZM57.2907 62.5H57.3079V60H57.2907V62.5ZM57.3079 62.5H57.3252V60H57.3079V62.5ZM57.3252 62.5H57.3426V60H57.3252V62.5ZM57.3426 62.5H57.3601V60H57.3426V62.5ZM57.3601 62.5H57.3778V60H57.3601V62.5ZM57.3778 62.5H57.3955V60H57.3778V62.5ZM57.3955 62.5H57.4133V60H57.3955V62.5ZM57.4133 62.5H57.4312V60H57.4133V62.5ZM57.4312 62.5H57.4493V60H57.4312V62.5ZM57.4493 62.5H57.4674V60H57.4493V62.5ZM57.4674 62.5H57.4856V60H57.4674V62.5ZM57.4856 62.5H57.504V60H57.4856V62.5ZM57.504 62.5H57.5224V60H57.504V62.5ZM57.5224 62.5H57.5409V60H57.5224V62.5ZM57.5409 62.5H57.5595V60H57.5409V62.5ZM57.5595 62.5H57.5783V60H57.5595V62.5ZM57.5783 62.5H57.5971V60H57.5783V62.5ZM57.5971 62.5H57.616V60H57.5971V62.5ZM57.616 62.5H57.6351V60H57.616V62.5ZM57.6351 62.5H57.6542V60H57.6351V62.5ZM57.6542 62.5H57.6734V60H57.6542V62.5ZM57.6734 62.5H57.6927V60H57.6734V62.5ZM57.6927 62.5H57.7122V60H57.6927V62.5ZM57.7122 62.5H57.7317V60H57.7122V62.5ZM57.7317 62.5H57.7513V60H57.7317V62.5ZM57.7513 62.5H57.771V60H57.7513V62.5ZM57.771 62.5H57.7908V60H57.771V62.5ZM57.7908 62.5H57.8108V60H57.7908V62.5ZM57.8108 62.5H57.8308V60H57.8108V62.5ZM57.8308 62.5H57.8509V60H57.8308V62.5ZM57.8509 62.5H57.8711V60H57.8509V62.5ZM57.8711 62.5H57.8914V60H57.8711V62.5ZM57.8914 62.5H57.9118V60H57.8914V62.5ZM57.9118 62.5H57.9322V60H57.9118V62.5ZM57.9322 62.5H57.9528V60H57.9322V62.5ZM57.9528 62.5H57.9735V60H57.9528V62.5ZM57.9735 62.5H57.9943V60H57.9735V62.5ZM57.9943 62.5H58.0152V60H57.9943V62.5ZM58.0152 62.5H58.0361V60H58.0152V62.5ZM58.0361 62.5H58.0572V60H58.0361V62.5ZM58.0572 62.5H58.0783V60H58.0572V62.5ZM58.0783 62.5H58.0996V60H58.0783V62.5ZM58.0996 62.5H58.1209V60H58.0996V62.5ZM58.1209 62.5H58.1424V60H58.1209V62.5ZM58.1424 62.5H58.1639V60H58.1424V62.5ZM58.1639 62.5H58.1855V60H58.1639V62.5ZM58.1855 62.5H58.2072V60H58.1855V62.5ZM58.2072 62.5H58.229V60H58.2072V62.5ZM58.229 62.5H58.2509V60H58.229V62.5ZM58.2509 62.5H58.2729V60H58.2509V62.5ZM58.2729 62.5H58.295V60H58.2729V62.5ZM58.295 62.5H58.3172V60H58.295V62.5ZM58.3172 62.5H58.3395V60H58.3172V62.5ZM58.3395 62.5H58.3618V60H58.3395V62.5ZM58.3618 62.5H58.3843V60H58.3618V62.5ZM58.3843 62.5H58.4068V60H58.3843V62.5ZM58.4068 62.5H58.4294V60H58.4068V62.5ZM58.4294 62.5H58.4522V60H58.4294V62.5ZM58.4522 62.5H58.475V60H58.4522V62.5ZM58.475 62.5H58.4979V60H58.475V62.5ZM58.4979 62.5H58.5209V60H58.4979V62.5ZM58.5209 62.5H58.544V60H58.5209V62.5ZM58.544 62.5H58.5671V60H58.544V62.5ZM58.5671 62.5H58.5904V60H58.5671V62.5ZM58.5904 62.5H58.6137V60H58.5904V62.5ZM58.6137 62.5H58.6372V60H58.6137V62.5ZM58.6372 62.5H58.6607V60H58.6372V62.5ZM58.6607 62.5H58.6843V60H58.6607V62.5ZM58.6843 62.5H58.708V60H58.6843V62.5ZM58.708 62.5H58.7318V60H58.708V62.5ZM58.7318 62.5H58.7557V60H58.7318V62.5ZM58.7557 62.5H58.7797V60H58.7557V62.5ZM58.7797 62.5H58.8037V60H58.7797V62.5ZM58.8037 62.5H58.8279V60H58.8037V62.5ZM58.8279 62.5H58.8521V60H58.8279V62.5ZM58.8521 62.5H58.8764V60H58.8521V62.5ZM58.8764 62.5H58.9008V60H58.8764V62.5ZM58.9008 62.5H58.9253V60H58.9008V62.5ZM58.9253 62.5H58.9499V60H58.9253V62.5ZM58.9499 62.5H58.9745V60H58.9499V62.5ZM58.9745 62.5H58.9993V60H58.9745V62.5ZM58.9993 62.5H59.0241V60H58.9993V62.5ZM59.0241 62.5H59.049V60H59.0241V62.5ZM59.049 62.5H59.074V60H59.049V62.5ZM59.074 62.5H59.0991V60H59.074V62.5ZM59.0991 62.5H59.1242V60H59.0991V62.5ZM59.1242 62.5H59.1495V60H59.1242V62.5ZM59.1495 62.5H59.1748V60H59.1495V62.5ZM59.1748 62.5H59.2003V60H59.1748V62.5ZM59.2003 62.5H59.2258V60H59.2003V62.5ZM59.2258 62.5H59.2513V60H59.2258V62.5ZM59.2513 62.5H59.277V60H59.2513V62.5ZM59.277 62.5H59.3028V60H59.277V62.5ZM59.3028 62.5H59.3286V60H59.3028V62.5ZM59.3286 62.5H59.3545V60H59.3286V62.5ZM59.3545 62.5H59.3805V60H59.3545V62.5ZM59.3805 62.5H59.4066V60H59.3805V62.5ZM59.4066 62.5H59.4327V60H59.4066V62.5ZM59.4327 62.5H59.459V60H59.4327V62.5ZM59.459 62.5H59.4853V60H59.459V62.5ZM59.4853 62.5H59.5117V60H59.4853V62.5ZM59.5117 62.5H59.5382V60H59.5117V62.5ZM59.5382 62.5H59.5648V60H59.5382V62.5ZM59.5648 62.5H59.5914V60H59.5648V62.5ZM59.5914 62.5H59.6181V60H59.5914V62.5ZM59.6181 62.5H59.6449V60H59.6181V62.5ZM59.6449 62.5H59.6718V60H59.6449V62.5ZM59.6718 62.5H59.6988V60H59.6718V62.5ZM59.6988 62.5H59.7258V60H59.6988V62.5ZM59.7258 62.5H59.753V60H59.7258V62.5ZM59.753 62.5H59.7802V60H59.753V62.5ZM59.7802 62.5H59.8074V60H59.7802V62.5ZM59.8074 62.5H59.8348V60H59.8074V62.5ZM59.8348 62.5H59.8622V60H59.8348V62.5ZM59.8622 62.5H59.8897V60H59.8622V62.5ZM59.8897 62.5H59.9173V60H59.8897V62.5ZM59.9173 62.5H59.945V60H59.9173V62.5ZM59.945 62.5H59.9727V60H59.945V62.5ZM59.9727 62.5H60.0006V60H59.9727V62.5ZM60.0006 62.5H60.0285V60H60.0006V62.5ZM60.0285 62.5H60.0564V60H60.0285V62.5ZM60.0564 62.5H60.0845V60H60.0564V62.5ZM60.0845 62.5H60.1126V60H60.0845V62.5ZM60.1126 62.5H60.1408V60H60.1126V62.5ZM60.1408 62.5H60.1691V60H60.1408V62.5ZM60.1691 62.5H60.1975V60H60.1691V62.5ZM60.1975 62.5H60.2259V60H60.1975V62.5ZM60.2259 62.5H60.2544V60H60.2259V62.5ZM60.2544 62.5H60.283V60H60.2544V62.5ZM60.283 62.5H60.3116V60H60.283V62.5ZM60.3116 62.5H60.3404V60H60.3116V62.5ZM60.3404 62.5H60.3692V60H60.3404V62.5ZM60.3692 62.5H60.3981V60H60.3692V62.5ZM60.3981 62.5H60.427V60H60.3981V62.5ZM60.427 62.5H60.456V60H60.427V62.5ZM60.456 62.5H60.4851V60H60.456V62.5ZM60.4851 62.5H60.5143V60H60.4851V62.5ZM60.5143 62.5H60.5435V60H60.5143V62.5ZM60.5435 62.5H60.5729V60H60.5435V62.5ZM60.5729 62.5H60.6022V60H60.5729V62.5ZM60.6022 62.5H60.6317V60H60.6022V62.5ZM60.6317 62.5H60.6612V60H60.6317V62.5ZM60.6612 62.5H60.6908V60H60.6612V62.5ZM60.6908 62.5H60.7205V60H60.6908V62.5ZM60.7205 62.5H60.7503V60H60.7205V62.5ZM60.7503 62.5H60.7801V60H60.7503V62.5ZM60.7801 62.5H60.81V60H60.7801V62.5ZM60.81 62.5H60.8399V60H60.81V62.5ZM60.8399 62.5H60.8699V60H60.8399V62.5ZM60.8699 62.5H60.9V60H60.8699V62.5ZM60.9 62.5H60.9302V60H60.9V62.5ZM60.9302 62.5H60.9604V60H60.9302V62.5ZM60.9604 62.5H60.9908V60H60.9604V62.5ZM60.9908 62.5H61.0211V60H60.9908V62.5ZM61.0211 62.5H61.0516V60H61.0211V62.5ZM61.0516 62.5H61.0821V60H61.0516V62.5ZM61.0821 62.5H61.1127V60H61.0821V62.5ZM61.1127 62.5H61.1433V60H61.1127V62.5ZM61.1433 62.5H61.174V60H61.1433V62.5ZM61.174 62.5H61.2048V60H61.174V62.5ZM61.2048 62.5H61.2357V60H61.2048V62.5ZM61.2357 62.5H61.2666V60H61.2357V62.5ZM61.2666 62.5H61.2976V60H61.2666V62.5ZM61.2976 62.5H61.3286V60H61.2976V62.5ZM61.3286 62.5H61.3598V60H61.3286V62.5ZM61.3598 62.5H61.391V60H61.3598V62.5ZM61.391 62.5H61.4222V60H61.391V62.5ZM61.4222 62.5H61.4535V60H61.4222V62.5ZM61.4535 62.5H61.4849V60H61.4535V62.5ZM61.4849 62.5H61.5164V60H61.4849V62.5ZM61.5164 62.5H61.5479V60H61.5164V62.5ZM61.5479 62.5H61.5795V60H61.5479V62.5ZM61.5795 62.5H61.6111V60H61.5795V62.5ZM61.6111 62.5H61.6428V60H61.6111V62.5ZM61.6428 62.5H61.6746V60H61.6428V62.5ZM61.6746 62.5H61.7065V60H61.6746V62.5ZM61.7065 62.5H61.7384V60H61.7065V62.5ZM61.7384 62.5H61.7703V60H61.7384V62.5ZM61.7703 62.5H61.8024V60H61.7703V62.5ZM61.8024 62.5H61.8345V60H61.8024V62.5ZM61.8345 62.5H61.8666V60H61.8345V62.5ZM61.8666 62.5H61.8988V60H61.8666V62.5ZM61.8988 62.5H61.9311V60H61.8988V62.5ZM61.9311 62.5H61.9635V60H61.9311V62.5ZM61.9635 62.5H61.9959V60H61.9635V62.5ZM61.9959 62.5H62.0284V60H61.9959V62.5ZM62.0284 62.5H62.0609V60H62.0284V62.5ZM62.0609 62.5H62.0935V60H62.0609V62.5ZM62.0935 62.5H62.1261V60H62.0935V62.5ZM62.1261 62.5H62.1589V60H62.1261V62.5ZM62.1589 62.5H62.1916V60H62.1589V62.5ZM62.1916 62.5H62.2245V60H62.1916V62.5ZM62.2245 62.5H62.2574V60H62.2245V62.5ZM62.2574 62.5H62.2903V60H62.2574V62.5ZM62.2903 62.5H62.3234V60H62.2903V62.5ZM62.3234 62.5H62.3565V60H62.3234V62.5ZM62.3565 62.5H62.3896V60H62.3565V62.5ZM62.3896 62.5H62.4228V60H62.3896V62.5ZM62.4228 62.5H62.456V60H62.4228V62.5ZM62.456 62.5H62.4894V60H62.456V62.5ZM62.4894 62.5H62.5227V60H62.4894V62.5ZM62.5227 62.5H62.5562V60H62.5227V62.5ZM62.5562 62.5H62.5897V60H62.5562V62.5ZM62.5897 62.5H62.6232V60H62.5897V62.5ZM62.6232 62.5H62.6568V60H62.6232V62.5ZM62.6568 62.5H62.6905V60H62.6568V62.5ZM62.6905 62.5H62.7242V60H62.6905V62.5ZM62.7242 62.5H62.758V60H62.7242V62.5ZM62.758 62.5H62.7918V60H62.758V62.5ZM62.7918 62.5H62.8257V60H62.7918V62.5ZM62.8257 62.5H62.8597V60H62.8257V62.5ZM62.8597 62.5H62.8937V60H62.8597V62.5ZM62.8937 62.5H62.9278V60H62.8937V62.5ZM62.9278 62.5H62.9619V60H62.9278V62.5ZM62.9619 62.5H62.9961V60H62.9619V62.5ZM62.9961 62.5H63.0303V60H62.9961V62.5ZM63.0303 62.5H63.0646V60H63.0303V62.5ZM63.0646 62.5H63.0989V60H63.0646V62.5ZM63.0989 62.5H63.1333V60H63.0989V62.5ZM63.1333 62.5H63.1678V60H63.1333V62.5ZM63.1678 62.5H63.2023V60H63.1678V62.5ZM63.2023 62.5H63.2368V60H63.2023V62.5ZM63.2368 62.5H63.2714V60H63.2368V62.5ZM63.2714 62.5H63.3061V60H63.2714V62.5ZM63.3061 62.5H63.3408V60H63.3061V62.5ZM63.3408 62.5H63.3756V60H63.3408V62.5ZM63.3756 62.5H63.4104V60H63.3756V62.5ZM63.4104 62.5H63.4453V60H63.4104V62.5ZM63.4453 62.5H63.4802V60H63.4453V62.5ZM63.4802 62.5H63.5152V60H63.4802V62.5ZM63.5152 62.5H63.5502V60H63.5152V62.5ZM63.5502 62.5H63.5853V60H63.5502V62.5ZM63.5853 62.5H63.6205V60H63.5853V62.5ZM63.6205 62.5H63.6557V60H63.6205V62.5ZM63.6557 62.5H63.6909V60H63.6557V62.5ZM63.6909 62.5H63.7262V60H63.6909V62.5ZM63.7262 62.5H63.7615V60H63.7262V62.5ZM63.7615 62.5H63.7969V60H63.7615V62.5ZM63.7969 62.5H63.8324V60H63.7969V62.5ZM63.8324 62.5H63.8679V60H63.8324V62.5ZM63.8679 62.5H63.9034V60H63.8679V62.5ZM63.9034 62.5H63.939V60H63.9034V62.5ZM63.939 62.5H63.9746V60H63.939V62.5ZM63.9746 62.5H64.0103V60H63.9746V62.5ZM64.0103 62.5H64.0461V60H64.0103V62.5ZM64.0461 62.5H64.0819V60H64.0461V62.5ZM64.0819 62.5H64.1177V60H64.0819V62.5ZM64.1177 62.5H64.1536V60H64.1177V62.5ZM64.1536 62.5H64.1895V60H64.1536V62.5ZM64.1895 62.5H64.2255V60H64.1895V62.5ZM64.2255 62.5H64.2615V60H64.2255V62.5ZM64.2615 62.5H64.2976V60H64.2615V62.5ZM64.2976 62.5H64.3337V60H64.2976V62.5ZM64.3337 62.5H64.3699V60H64.3337V62.5ZM64.3699 62.5H64.4061V60H64.3699V62.5ZM64.4061 62.5H64.4424V60H64.4061V62.5ZM64.4424 62.5H64.4787V60H64.4424V62.5ZM64.4787 62.5H64.5151V60H64.4787V62.5ZM64.5151 62.5H64.5515V60H64.5151V62.5ZM64.5515 62.5H64.5879V60H64.5515V62.5ZM64.5879 62.5H64.6244V60H64.5879V62.5ZM64.6244 62.5H64.6609V60H64.6244V62.5ZM64.6609 62.5H64.6975V60H64.6609V62.5ZM64.6975 62.5H64.7342V60H64.6975V62.5ZM64.7342 62.5H64.7708V60H64.7342V62.5ZM64.7708 62.5H64.8076V60H64.7708V62.5ZM64.8076 62.5H64.8443V60H64.8076V62.5ZM64.8443 62.5H64.8811V60H64.8443V62.5ZM64.8811 62.5H64.918V60H64.8811V62.5ZM64.918 62.5H64.9549V60H64.918V62.5ZM64.9549 62.5H64.9918V60H64.9549V62.5ZM64.9918 62.5H65.0288V60H64.9918V62.5ZM65.0288 62.5H65.0658V60H65.0288V62.5ZM65.0658 62.5H65.1029V60H65.0658V62.5ZM65.1029 62.5H65.14V60H65.1029V62.5ZM65.14 62.5H65.1771V60H65.14V62.5ZM65.1771 62.5H65.2143V60H65.1771V62.5ZM65.2143 62.5H65.2515V60H65.2143V62.5ZM65.2515 62.5H65.2888V60H65.2515V62.5ZM65.2888 62.5H65.3261V60H65.2888V62.5ZM65.3261 62.5H65.3635V60H65.3261V62.5ZM65.3635 62.5H65.4009V60H65.3635V62.5ZM65.4009 62.5H65.4383V60H65.4009V62.5ZM65.4383 62.5H65.4758V60H65.4383V62.5ZM65.4758 62.5H65.5133V60H65.4758V62.5ZM65.5133 62.5H65.5509V60H65.5133V62.5ZM65.5509 62.5H65.5885V60H65.5509V62.5ZM65.5885 62.5H65.6261V60H65.5885V62.5ZM65.6261 62.5H65.6638V60H65.6261V62.5ZM65.6638 62.5H65.7015V60H65.6638V62.5ZM65.7015 62.5H65.7392V60H65.7015V62.5ZM65.7392 62.5H65.777V60H65.7392V62.5ZM65.777 62.5H65.8148V60H65.777V62.5ZM65.8148 62.5H65.8527V60H65.8148V62.5ZM65.8527 62.5H65.8906V60H65.8527V62.5ZM65.8906 62.5H65.9286V60H65.8906V62.5ZM65.9286 62.5H65.9665V60H65.9286V62.5ZM65.9665 62.5H66.0046V60H65.9665V62.5ZM66.0046 62.5H66.0426V60H66.0046V62.5ZM66.0426 62.5H66.0807V60H66.0426V62.5ZM66.0807 62.5H66.1188V60H66.0807V62.5ZM66.1188 62.5H66.157V60H66.1188V62.5ZM66.157 62.5H66.1952V60H66.157V62.5ZM66.1952 62.5H66.2334V60H66.1952V62.5ZM66.2334 62.5H66.2717V60H66.2334V62.5ZM66.2717 62.5H66.31V60H66.2717V62.5ZM66.31 62.5H66.3484V60H66.31V62.5ZM66.3484 62.5H66.3867V60H66.3484V62.5ZM66.3867 62.5H66.4251V60H66.3867V62.5ZM66.4251 62.5H66.4636V60H66.4251V62.5ZM66.4636 62.5H66.5021V60H66.4636V62.5ZM66.5021 62.5H66.5406V60H66.5021V62.5ZM66.5406 62.5H66.5791V60H66.5406V62.5ZM66.5791 62.5H66.6177V60H66.5791V62.5ZM66.6177 62.5H66.6563V60H66.6177V62.5ZM66.6563 62.5H66.695V60H66.6563V62.5ZM66.695 62.5H66.7337V60H66.695V62.5ZM66.7337 62.5H66.7724V60H66.7337V62.5ZM66.7724 62.5H66.8111V60H66.7724V62.5ZM66.8111 62.5H66.8499V60H66.8111V62.5ZM66.8499 62.5H66.8887V60H66.8499V62.5ZM66.8887 62.5H66.9276V60H66.8887V62.5ZM66.9276 62.5H66.9664V60H66.9276V62.5ZM66.9664 62.5H67.0053V60H66.9664V62.5ZM67.0053 62.5H67.0443V60H67.0053V62.5ZM67.0443 62.5H67.0832V60H67.0443V62.5ZM67.0832 62.5H67.1222V60H67.0832V62.5ZM67.1222 62.5H67.1613V60H67.1222V62.5ZM67.1613 62.5H67.2003V60H67.1613V62.5ZM67.2003 62.5H67.2394V60H67.2003V62.5ZM67.2394 62.5H67.2785V60H67.2394V62.5ZM67.2785 62.5H67.3177V60H67.2785V62.5ZM67.3177 62.5H67.3569V60H67.3177V62.5ZM67.3569 62.5H67.3961V60H67.3569V62.5ZM67.3961 62.5H67.4353V60H67.3961V62.5ZM67.4353 62.5H67.4746V60H67.4353V62.5ZM67.4746 62.5H67.5139V60H67.4746V62.5ZM67.5139 62.5H67.5532V60H67.5139V62.5ZM67.5532 62.5H67.5925V60H67.5532V62.5ZM67.5925 62.5H67.6319V60H67.5925V62.5ZM67.6319 62.5H67.6713V60H67.6319V62.5ZM67.6713 62.5H67.7108V60H67.6713V62.5ZM67.7108 62.5H67.7502V60H67.7108V62.5ZM67.7502 62.5H67.7897V60H67.7502V62.5ZM67.7897 62.5H67.8292V60H67.7897V62.5ZM67.8292 62.5H67.8688V60H67.8292V62.5ZM67.8688 62.5H67.9083V60H67.8688V62.5ZM67.9083 62.5H67.9479V60H67.9083V62.5ZM67.9479 62.5H67.9875V60H67.9479V62.5ZM67.9875 62.5H68.0272V60H67.9875V62.5ZM68.0272 62.5H68.0669V60H68.0272V62.5ZM68.0669 62.5H68.1065V60H68.0669V62.5ZM68.1065 62.5H68.1463V60H68.1065V62.5ZM68.1463 62.5H68.186V60H68.1463V62.5ZM68.186 62.5H68.2258V60H68.186V62.5ZM68.2258 62.5H68.2656V60H68.2258V62.5ZM68.2656 62.5H68.3054V60H68.2656V62.5ZM68.3054 62.5H68.3452V60H68.3054V62.5ZM68.3452 62.5H68.3851V60H68.3452V62.5ZM68.3851 62.5H68.425V60H68.3851V62.5ZM68.425 62.5H68.4649V60H68.425V62.5ZM68.4649 62.5H68.5048V60H68.4649V62.5ZM68.5048 62.5H68.5448V60H68.5048V62.5ZM68.5448 62.5H68.5848V60H68.5448V62.5ZM68.5848 62.5H68.6248V60H68.5848V62.5ZM68.6248 62.5H68.6648V60H68.6248V62.5ZM68.6648 62.5H68.7048V60H68.6648V62.5ZM68.7048 62.5H68.7449V60H68.7048V62.5ZM68.7449 62.5C68.9286 62.5 68.8688 62.5328 68.6958 62.4448L69.8296 60.2167C69.5664 60.0827 69.2148 60 68.7449 60V62.5ZM68.6958 62.4448C68.6783 62.4359 68.5789 62.386 68.4681 62.2895C68.403 62.2327 68.337 62.1629 68.2769 62.0785C68.2214 62.0007 68.1863 61.9303 68.1888 61.9351L70.4059 60.7799C70.3741 60.7189 70.2863 60.5579 70.1107 60.4048C69.9904 60.3 69.8753 60.2399 69.8296 60.2167L68.6958 62.4448ZM68.189 61.9354C68.189 61.9354 68.189 61.9354 68.189 61.9354C68.189 61.9355 68.189 61.9355 68.1891 61.9356C68.1891 61.9357 68.1892 61.9359 68.1893 61.9361C68.1895 61.9365 68.1899 61.9372 68.1904 61.938C68.1912 61.9397 68.1926 61.9424 68.1944 61.9457C68.1979 61.9523 68.2034 61.9625 68.2104 61.9749L70.3867 60.7445C70.3932 60.7561 70.3984 60.7656 70.4015 60.7715C70.4042 60.7766 70.4066 60.7811 70.4058 60.7796L68.189 61.9354ZM68.2104 61.9749C68.1609 61.8873 68.137 61.8175 68.1266 61.7824C68.1151 61.7438 68.113 61.7243 68.1139 61.7311L70.5919 61.4C70.5626 61.1809 70.504 60.9521 70.3867 60.7445L68.2104 61.9749ZM68.1139 61.7311C68.1181 61.7624 68.1212 61.8135 68.1212 62H70.6212C70.6212 61.8326 70.6213 61.6205 70.5919 61.4L68.1139 61.7311ZM68.1212 62C68.1212 70.0622 74.7913 76.5 82.8973 76.5V74C76.1166 74 70.6212 68.6267 70.6212 62H68.1212ZM82.8973 76.5C91.0032 76.5 97.6734 70.0622 97.6734 62H95.1734C95.1734 68.6267 89.6779 74 82.8973 74V76.5ZM97.6734 62C97.6734 61.8134 97.6765 61.7624 97.6807 61.7311L95.2027 61.4C95.1732 61.6205 95.1734 61.8326 95.1734 62H97.6734ZM97.6807 61.7311C97.6816 61.7243 97.6795 61.7438 97.668 61.7823C97.6575 61.8175 97.6336 61.8873 97.5841 61.9749L95.4079 60.7445C95.2905 60.9521 95.2319 61.1809 95.2027 61.4L97.6807 61.7311ZM97.5851 61.9731C97.5919 61.9611 97.5973 61.951 97.6008 61.9444C97.6026 61.9411 97.604 61.9384 97.605 61.9366C97.6058 61.9349 97.6066 61.9335 97.6066 61.9334L95.3878 60.7816C95.3873 60.7825 95.3896 60.7781 95.3924 60.7728C95.3955 60.7669 95.4005 60.7576 95.4069 60.7462L97.5851 61.9731ZM97.6055 61.9355C97.608 61.9307 97.573 62.001 97.5175 62.0788C97.4574 62.1631 97.3915 62.2328 97.3264 62.2896C97.2156 62.3861 97.1163 62.4359 97.0987 62.4448L95.9649 60.2167C95.9192 60.2399 95.8042 60.3 95.684 60.4048C95.5084 60.5577 95.4206 60.7186 95.3888 60.7795L97.6055 61.9355ZM97.0987 62.4448C96.9258 62.5328 96.8659 62.5 97.0496 62.5V60C96.5797 60 96.2282 60.0827 95.9649 60.2167L97.0987 62.4448ZM97.0496 62.5H122V60H97.0496V62.5ZM122 62.5C123.381 62.5 124.5 61.3807 124.5 60H122V62.5ZM124.5 60C124.5 58.6193 123.381 57.5 122 57.5V60H124.5ZM122 57.5H97.0496V60H122V57.5ZM97.0496 57.5C95.4482 57.5 94.0156 58.1275 93.2316 59.514L95.4079 60.7445C95.6402 60.3337 96.1059 60 97.0496 60V57.5ZM93.2316 59.514C92.6522 60.5389 92.672 61.6345 92.6733 61.9587L95.1732 61.9494C95.172 61.6215 95.1859 61.1371 95.4079 60.7445L93.2316 59.514ZM92.6733 61.9587C92.6733 61.9758 92.6734 61.9887 92.6734 62H95.1734C95.1734 61.9832 95.1733 61.9653 95.1732 61.9494L92.6733 61.9587ZM92.6734 62C92.6734 67.1943 88.3494 71.5 82.8973 71.5V74C89.6781 74 95.1734 68.6265 95.1734 62H92.6734ZM82.8973 71.5C77.4451 71.5 73.1212 67.1943 73.1212 62H70.6212C70.6212 68.6265 76.1164 74 82.8973 74V71.5ZM73.1212 62C73.1212 61.9887 73.1212 61.9758 73.1213 61.9587L70.6213 61.9494C70.6213 61.9653 70.6212 61.9831 70.6212 62H73.1212ZM73.1213 61.9587C73.1225 61.6345 73.1423 60.5389 72.5629 59.514L70.3867 60.7445C70.6086 61.1371 70.6225 61.6215 70.6213 61.9494L73.1213 61.9587ZM72.5629 59.514C71.779 58.1275 70.3464 57.5 68.7449 57.5V60C69.6887 60 70.1544 60.3337 70.3867 60.7445L72.5629 59.514ZM68.7449 57.5H68.7048V60H68.7449V57.5ZM68.7048 57.5H68.6648V60H68.7048V57.5ZM68.6648 57.5H68.6248V60H68.6648V57.5ZM68.6248 57.5H68.5848V60H68.6248V57.5ZM68.5848 57.5H68.5448V60H68.5848V57.5ZM68.5448 57.5H68.5048V60H68.5448V57.5ZM68.5048 57.5H68.4649V60H68.5048V57.5ZM68.4649 57.5H68.425V60H68.4649V57.5ZM68.425 57.5H68.3851V60H68.425V57.5ZM68.3851 57.5H68.3452V60H68.3851V57.5ZM68.3452 57.5H68.3054V60H68.3452V57.5ZM68.3054 57.5H68.2656V60H68.3054V57.5ZM68.2656 57.5H68.2258V60H68.2656V57.5ZM68.2258 57.5H68.186V60H68.2258V57.5ZM68.186 57.5H68.1463V60H68.186V57.5ZM68.1463 57.5H68.1065V60H68.1463V57.5ZM68.1065 57.5H68.0669V60H68.1065V57.5ZM68.0669 57.5H68.0272V60H68.0669V57.5ZM68.0272 57.5H67.9875V60H68.0272V57.5ZM67.9875 57.5H67.9479V60H67.9875V57.5ZM67.9479 57.5H67.9083V60H67.9479V57.5ZM67.9083 57.5H67.8688V60H67.9083V57.5ZM67.8688 57.5H67.8292V60H67.8688V57.5ZM67.8292 57.5H67.7897V60H67.8292V57.5ZM67.7897 57.5H67.7502V60H67.7897V57.5ZM67.7502 57.5H67.7108V60H67.7502V57.5ZM67.7108 57.5H67.6713V60H67.7108V57.5ZM67.6713 57.5H67.6319V60H67.6713V57.5ZM67.6319 57.5H67.5925V60H67.6319V57.5ZM67.5925 57.5H67.5532V60H67.5925V57.5ZM67.5532 57.5H67.5139V60H67.5532V57.5ZM67.5139 57.5H67.4746V60H67.5139V57.5ZM67.4746 57.5H67.4353V60H67.4746V57.5ZM67.4353 57.5H67.3961V60H67.4353V57.5ZM67.3961 57.5H67.3569V60H67.3961V57.5ZM67.3569 57.5H67.3177V60H67.3569V57.5ZM67.3177 57.5H67.2785V60H67.3177V57.5ZM67.2785 57.5H67.2394V60H67.2785V57.5ZM67.2394 57.5H67.2003V60H67.2394V57.5ZM67.2003 57.5H67.1613V60H67.2003V57.5ZM67.1613 57.5H67.1222V60H67.1613V57.5ZM67.1222 57.5H67.0832V60H67.1222V57.5ZM67.0832 57.5H67.0443V60H67.0832V57.5ZM67.0443 57.5H67.0053V60H67.0443V57.5ZM67.0053 57.5H66.9664V60H67.0053V57.5ZM66.9664 57.5H66.9276V60H66.9664V57.5ZM66.9276 57.5H66.8887V60H66.9276V57.5ZM66.8887 57.5H66.8499V60H66.8887V57.5ZM66.8499 57.5H66.8111V60H66.8499V57.5ZM66.8111 57.5H66.7724V60H66.8111V57.5ZM66.7724 57.5H66.7337V60H66.7724V57.5ZM66.7337 57.5H66.695V60H66.7337V57.5ZM66.695 57.5H66.6563V60H66.695V57.5ZM66.6563 57.5H66.6177V60H66.6563V57.5ZM66.6177 57.5H66.5791V60H66.6177V57.5ZM66.5791 57.5H66.5406V60H66.5791V57.5ZM66.5406 57.5H66.5021V60H66.5406V57.5ZM66.5021 57.5H66.4636V60H66.5021V57.5ZM66.4636 57.5H66.4251V60H66.4636V57.5ZM66.4251 57.5H66.3867V60H66.4251V57.5ZM66.3867 57.5H66.3484V60H66.3867V57.5ZM66.3484 57.5H66.31V60H66.3484V57.5ZM66.31 57.5H66.2717V60H66.31V57.5ZM66.2717 57.5H66.2334V60H66.2717V57.5ZM66.2334 57.5H66.1952V60H66.2334V57.5ZM66.1952 57.5H66.157V60H66.1952V57.5ZM66.157 57.5H66.1188V60H66.157V57.5ZM66.1188 57.5H66.0807V60H66.1188V57.5ZM66.0807 57.5H66.0426V60H66.0807V57.5ZM66.0426 57.5H66.0046V60H66.0426V57.5ZM66.0046 57.5H65.9665V60H66.0046V57.5ZM65.9665 57.5H65.9286V60H65.9665V57.5ZM65.9286 57.5H65.8906V60H65.9286V57.5ZM65.8906 57.5H65.8527V60H65.8906V57.5ZM65.8527 57.5H65.8148V60H65.8527V57.5ZM65.8148 57.5H65.777V60H65.8148V57.5ZM65.777 57.5H65.7392V60H65.777V57.5ZM65.7392 57.5H65.7015V60H65.7392V57.5ZM65.7015 57.5H65.6638V60H65.7015V57.5ZM65.6638 57.5H65.6261V60H65.6638V57.5ZM65.6261 57.5H65.5885V60H65.6261V57.5ZM65.5885 57.5H65.5509V60H65.5885V57.5ZM65.5509 57.5H65.5133V60H65.5509V57.5ZM65.5133 57.5H65.4758V60H65.5133V57.5ZM65.4758 57.5H65.4383V60H65.4758V57.5ZM65.4383 57.5H65.4009V60H65.4383V57.5ZM65.4009 57.5H65.3635V60H65.4009V57.5ZM65.3635 57.5H65.3261V60H65.3635V57.5ZM65.3261 57.5H65.2888V60H65.3261V57.5ZM65.2888 57.5H65.2515V60H65.2888V57.5ZM65.2515 57.5H65.2143V60H65.2515V57.5ZM65.2143 57.5H65.1771V60H65.2143V57.5ZM65.1771 57.5H65.14V60H65.1771V57.5ZM65.14 57.5H65.1029V60H65.14V57.5ZM65.1029 57.5H65.0658V60H65.1029V57.5ZM65.0658 57.5H65.0288V60H65.0658V57.5ZM65.0288 57.5H64.9918V60H65.0288V57.5ZM64.9918 57.5H64.9549V60H64.9918V57.5ZM64.9549 57.5H64.918V60H64.9549V57.5ZM64.918 57.5H64.8811V60H64.918V57.5ZM64.8811 57.5H64.8443V60H64.8811V57.5ZM64.8443 57.5H64.8076V60H64.8443V57.5ZM64.8076 57.5H64.7708V60H64.8076V57.5ZM64.7708 57.5H64.7342V60H64.7708V57.5ZM64.7342 57.5H64.6975V60H64.7342V57.5ZM64.6975 57.5H64.6609V60H64.6975V57.5ZM64.6609 57.5H64.6244V60H64.6609V57.5ZM64.6244 57.5H64.5879V60H64.6244V57.5ZM64.5879 57.5H64.5515V60H64.5879V57.5ZM64.5515 57.5H64.5151V60H64.5515V57.5ZM64.5151 57.5H64.4787V60H64.5151V57.5ZM64.4787 57.5H64.4424V60H64.4787V57.5ZM64.4424 57.5H64.4061V60H64.4424V57.5ZM64.4061 57.5H64.3699V60H64.4061V57.5ZM64.3699 57.5H64.3337V60H64.3699V57.5ZM64.3337 57.5H64.2976V60H64.3337V57.5ZM64.2976 57.5H64.2615V60H64.2976V57.5ZM64.2615 57.5H64.2255V60H64.2615V57.5ZM64.2255 57.5H64.1895V60H64.2255V57.5ZM64.1895 57.5H64.1536V60H64.1895V57.5ZM64.1536 57.5H64.1177V60H64.1536V57.5ZM64.1177 57.5H64.0819V60H64.1177V57.5ZM64.0819 57.5H64.0461V60H64.0819V57.5ZM64.0461 57.5H64.0103V60H64.0461V57.5ZM64.0103 57.5H63.9746V60H64.0103V57.5ZM63.9746 57.5H63.939V60H63.9746V57.5ZM63.939 57.5H63.9034V60H63.939V57.5ZM63.9034 57.5H63.8679V60H63.9034V57.5ZM63.8679 57.5H63.8324V60H63.8679V57.5ZM63.8324 57.5H63.7969V60H63.8324V57.5ZM63.7969 57.5H63.7615V60H63.7969V57.5ZM63.7615 57.5H63.7262V60H63.7615V57.5ZM63.7262 57.5H63.6909V60H63.7262V57.5ZM63.6909 57.5H63.6557V60H63.6909V57.5ZM63.6557 57.5H63.6205V60H63.6557V57.5ZM63.6205 57.5H63.5853V60H63.6205V57.5ZM63.5853 57.5H63.5502V60H63.5853V57.5ZM63.5502 57.5H63.5152V60H63.5502V57.5ZM63.5152 57.5H63.4802V60H63.5152V57.5ZM63.4802 57.5H63.4453V60H63.4802V57.5ZM63.4453 57.5H63.4104V60H63.4453V57.5ZM63.4104 57.5H63.3756V60H63.4104V57.5ZM63.3756 57.5H63.3408V60H63.3756V57.5ZM63.3408 57.5H63.3061V60H63.3408V57.5ZM63.3061 57.5H63.2714V60H63.3061V57.5ZM63.2714 57.5H63.2368V60H63.2714V57.5ZM63.2368 57.5H63.2023V60H63.2368V57.5ZM63.2023 57.5H63.1678V60H63.2023V57.5ZM63.1678 57.5H63.1333V60H63.1678V57.5ZM63.1333 57.5H63.0989V60H63.1333V57.5ZM63.0989 57.5H63.0646V60H63.0989V57.5ZM63.0646 57.5H63.0303V60H63.0646V57.5ZM63.0303 57.5H62.9961V60H63.0303V57.5ZM62.9961 57.5H62.9619V60H62.9961V57.5ZM62.9619 57.5H62.9278V60H62.9619V57.5ZM62.9278 57.5H62.8937V60H62.9278V57.5ZM62.8937 57.5H62.8597V60H62.8937V57.5ZM62.8597 57.5H62.8257V60H62.8597V57.5ZM62.8257 57.5H62.7918V60H62.8257V57.5ZM62.7918 57.5H62.758V60H62.7918V57.5ZM62.758 57.5H62.7242V60H62.758V57.5ZM62.7242 57.5H62.6905V60H62.7242V57.5ZM62.6905 57.5H62.6568V60H62.6905V57.5ZM62.6568 57.5H62.6232V60H62.6568V57.5ZM62.6232 57.5H62.5897V60H62.6232V57.5ZM62.5897 57.5H62.5562V60H62.5897V57.5ZM62.5562 57.5H62.5227V60H62.5562V57.5ZM62.5227 57.5H62.4894V60H62.5227V57.5ZM62.4894 57.5H62.456V60H62.4894V57.5ZM62.456 57.5H62.4228V60H62.456V57.5ZM62.4228 57.5H62.3896V60H62.4228V57.5ZM62.3896 57.5H62.3565V60H62.3896V57.5ZM62.3565 57.5H62.3234V60H62.3565V57.5ZM62.3234 57.5H62.2903V60H62.3234V57.5ZM62.2903 57.5H62.2574V60H62.2903V57.5ZM62.2574 57.5H62.2245V60H62.2574V57.5ZM62.2245 57.5H62.1916V60H62.2245V57.5ZM62.1916 57.5H62.1589V60H62.1916V57.5ZM62.1589 57.5H62.1261V60H62.1589V57.5ZM62.1261 57.5H62.0935V60H62.1261V57.5ZM62.0935 57.5H62.0609V60H62.0935V57.5ZM62.0609 57.5H62.0284V60H62.0609V57.5ZM62.0284 57.5H61.9959V60H62.0284V57.5ZM61.9959 57.5H61.9635V60H61.9959V57.5ZM61.9635 57.5H61.9311V60H61.9635V57.5ZM61.9311 57.5H61.8988V60H61.9311V57.5ZM61.8988 57.5H61.8666V60H61.8988V57.5ZM61.8666 57.5H61.8345V60H61.8666V57.5ZM61.8345 57.5H61.8024V60H61.8345V57.5ZM61.8024 57.5H61.7703V60H61.8024V57.5ZM61.7703 57.5H61.7384V60H61.7703V57.5ZM61.7384 57.5H61.7065V60H61.7384V57.5ZM61.7065 57.5H61.6746V60H61.7065V57.5ZM61.6746 57.5H61.6428V60H61.6746V57.5ZM61.6428 57.5H61.6111V60H61.6428V57.5ZM61.6111 57.5H61.5795V60H61.6111V57.5ZM61.5795 57.5H61.5479V60H61.5795V57.5ZM61.5479 57.5H61.5164V60H61.5479V57.5ZM61.5164 57.5H61.4849V60H61.5164V57.5ZM61.4849 57.5H61.4535V60H61.4849V57.5ZM61.4535 57.5H61.4222V60H61.4535V57.5ZM61.4222 57.5H61.391V60H61.4222V57.5ZM61.391 57.5H61.3598V60H61.391V57.5ZM61.3598 57.5H61.3286V60H61.3598V57.5ZM61.3286 57.5H61.2976V60H61.3286V57.5ZM61.2976 57.5H61.2666V60H61.2976V57.5ZM61.2666 57.5H61.2357V60H61.2666V57.5ZM61.2357 57.5H61.2048V60H61.2357V57.5ZM61.2048 57.5H61.174V60H61.2048V57.5ZM61.174 57.5H61.1433V60H61.174V57.5ZM61.1433 57.5H61.1127V60H61.1433V57.5ZM61.1127 57.5H61.0821V60H61.1127V57.5ZM61.0821 57.5H61.0516V60H61.0821V57.5ZM61.0516 57.5H61.0211V60H61.0516V57.5ZM61.0211 57.5H60.9908V60H61.0211V57.5ZM60.9908 57.5H60.9604V60H60.9908V57.5ZM60.9604 57.5H60.9302V60H60.9604V57.5ZM60.9302 57.5H60.9V60H60.9302V57.5ZM60.9 57.5H60.8699V60H60.9V57.5ZM60.8699 57.5H60.8399V60H60.8699V57.5ZM60.8399 57.5H60.81V60H60.8399V57.5ZM60.81 57.5H60.7801V60H60.81V57.5ZM60.7801 57.5H60.7503V60H60.7801V57.5ZM60.7503 57.5H60.7205V60H60.7503V57.5ZM60.7205 57.5H60.6908V60H60.7205V57.5ZM60.6908 57.5H60.6612V60H60.6908V57.5ZM60.6612 57.5H60.6317V60H60.6612V57.5ZM60.6317 57.5H60.6022V60H60.6317V57.5ZM60.6022 57.5H60.5729V60H60.6022V57.5ZM60.5729 57.5H60.5435V60H60.5729V57.5ZM60.5435 57.5H60.5143V60H60.5435V57.5ZM60.5143 57.5H60.4851V60H60.5143V57.5ZM60.4851 57.5H60.456V60H60.4851V57.5ZM60.456 57.5H60.427V60H60.456V57.5ZM60.427 57.5H60.3981V60H60.427V57.5ZM60.3981 57.5H60.3692V60H60.3981V57.5ZM60.3692 57.5H60.3404V60H60.3692V57.5ZM60.3404 57.5H60.3116V60H60.3404V57.5ZM60.3116 57.5H60.283V60H60.3116V57.5ZM60.283 57.5H60.2544V60H60.283V57.5ZM60.2544 57.5H60.2259V60H60.2544V57.5ZM60.2259 57.5H60.1975V60H60.2259V57.5ZM60.1975 57.5H60.1691V60H60.1975V57.5ZM60.1691 57.5H60.1408V60H60.1691V57.5ZM60.1408 57.5H60.1126V60H60.1408V57.5ZM60.1126 57.5H60.0845V60H60.1126V57.5ZM60.0845 57.5H60.0564V60H60.0845V57.5ZM60.0564 57.5H60.0285V60H60.0564V57.5ZM60.0285 57.5H60.0006V60H60.0285V57.5ZM60.0006 57.5H59.9727V60H60.0006V57.5ZM59.9727 57.5H59.945V60H59.9727V57.5ZM59.945 57.5H59.9173V60H59.945V57.5ZM59.9173 57.5H59.8897V60H59.9173V57.5ZM59.8897 57.5H59.8622V60H59.8897V57.5ZM59.8622 57.5H59.8348V60H59.8622V57.5ZM59.8348 57.5H59.8074V60H59.8348V57.5ZM59.8074 57.5H59.7802V60H59.8074V57.5ZM59.7802 57.5H59.753V60H59.7802V57.5ZM59.753 57.5H59.7258V60H59.753V57.5ZM59.7258 57.5H59.6988V60H59.7258V57.5ZM59.6988 57.5H59.6718V60H59.6988V57.5ZM59.6718 57.5H59.6449V60H59.6718V57.5ZM59.6449 57.5H59.6181V60H59.6449V57.5ZM59.6181 57.5H59.5914V60H59.6181V57.5ZM59.5914 57.5H59.5648V60H59.5914V57.5ZM59.5648 57.5H59.5382V60H59.5648V57.5ZM59.5382 57.5H59.5117V60H59.5382V57.5ZM59.5117 57.5H59.4853V60H59.5117V57.5ZM59.4853 57.5H59.459V60H59.4853V57.5ZM59.459 57.5H59.4327V60H59.459V57.5ZM59.4327 57.5H59.4066V60H59.4327V57.5ZM59.4066 57.5H59.3805V60H59.4066V57.5ZM59.3805 57.5H59.3545V60H59.3805V57.5ZM59.3545 57.5H59.3286V60H59.3545V57.5ZM59.3286 57.5H59.3028V60H59.3286V57.5ZM59.3028 57.5H59.277V60H59.3028V57.5ZM59.277 57.5H59.2513V60H59.277V57.5ZM59.2513 57.5H59.2258V60H59.2513V57.5ZM59.2258 57.5H59.2003V60H59.2258V57.5ZM59.2003 57.5H59.1748V60H59.2003V57.5ZM59.1748 57.5H59.1495V60H59.1748V57.5ZM59.1495 57.5H59.1242V60H59.1495V57.5ZM59.1242 57.5H59.0991V60H59.1242V57.5ZM59.0991 57.5H59.074V60H59.0991V57.5ZM59.074 57.5H59.049V60H59.074V57.5ZM59.049 57.5H59.0241V60H59.049V57.5ZM59.0241 57.5H58.9993V60H59.0241V57.5ZM58.9993 57.5H58.9745V60H58.9993V57.5ZM58.9745 57.5H58.9499V60H58.9745V57.5ZM58.9499 57.5H58.9253V60H58.9499V57.5ZM58.9253 57.5H58.9008V60H58.9253V57.5ZM58.9008 57.5H58.8764V60H58.9008V57.5ZM58.8764 57.5H58.8521V60H58.8764V57.5ZM58.8521 57.5H58.8279V60H58.8521V57.5ZM58.8279 57.5H58.8037V60H58.8279V57.5ZM58.8037 57.5H58.7797V60H58.8037V57.5ZM58.7797 57.5H58.7557V60H58.7797V57.5ZM58.7557 57.5H58.7318V60H58.7557V57.5ZM58.7318 57.5H58.708V60H58.7318V57.5ZM58.708 57.5H58.6843V60H58.708V57.5ZM58.6843 57.5H58.6607V60H58.6843V57.5ZM58.6607 57.5H58.6372V60H58.6607V57.5ZM58.6372 57.5H58.6137V60H58.6372V57.5ZM58.6137 57.5H58.5904V60H58.6137V57.5ZM58.5904 57.5H58.5671V60H58.5904V57.5ZM58.5671 57.5H58.544V60H58.5671V57.5ZM58.544 57.5H58.5209V60H58.544V57.5ZM58.5209 57.5H58.4979V60H58.5209V57.5ZM58.4979 57.5H58.475V60H58.4979V57.5ZM58.475 57.5H58.4522V60H58.475V57.5ZM58.4522 57.5H58.4294V60H58.4522V57.5ZM58.4294 57.5H58.4068V60H58.4294V57.5ZM58.4068 57.5H58.3843V60H58.4068V57.5ZM58.3843 57.5H58.3618V60H58.3843V57.5ZM58.3618 57.5H58.3395V60H58.3618V57.5ZM58.3395 57.5H58.3172V60H58.3395V57.5ZM58.3172 57.5H58.295V60H58.3172V57.5ZM58.295 57.5H58.2729V60H58.295V57.5ZM58.2729 57.5H58.2509V60H58.2729V57.5ZM58.2509 57.5H58.229V60H58.2509V57.5ZM58.229 57.5H58.2072V60H58.229V57.5ZM58.2072 57.5H58.1855V60H58.2072V57.5ZM58.1855 57.5H58.1639V60H58.1855V57.5ZM58.1639 57.5H58.1424V60H58.1639V57.5ZM58.1424 57.5H58.1209V60H58.1424V57.5ZM58.1209 57.5H58.0996V60H58.1209V57.5ZM58.0996 57.5H58.0783V60H58.0996V57.5ZM58.0783 57.5H58.0572V60H58.0783V57.5ZM58.0572 57.5H58.0361V60H58.0572V57.5ZM58.0361 57.5H58.0152V60H58.0361V57.5ZM58.0152 57.5H57.9943V60H58.0152V57.5ZM57.9943 57.5H57.9735V60H57.9943V57.5ZM57.9735 57.5H57.9528V60H57.9735V57.5ZM57.9528 57.5H57.9322V60H57.9528V57.5ZM57.9322 57.5H57.9118V60H57.9322V57.5ZM57.9118 57.5H57.8914V60H57.9118V57.5ZM57.8914 57.5H57.8711V60H57.8914V57.5ZM57.8711 57.5H57.8509V60H57.8711V57.5ZM57.8509 57.5H57.8308V60H57.8509V57.5ZM57.8308 57.5H57.8108V60H57.8308V57.5ZM57.8108 57.5H57.7908V60H57.8108V57.5ZM57.7908 57.5H57.771V60H57.7908V57.5ZM57.771 57.5H57.7513V60H57.771V57.5ZM57.7513 57.5H57.7317V60H57.7513V57.5ZM57.7317 57.5H57.7122V60H57.7317V57.5ZM57.7122 57.5H57.6927V60H57.7122V57.5ZM57.6927 57.5H57.6734V60H57.6927V57.5ZM57.6734 57.5H57.6542V60H57.6734V57.5ZM57.6542 57.5H57.6351V60H57.6542V57.5ZM57.6351 57.5H57.616V60H57.6351V57.5ZM57.616 57.5H57.5971V60H57.616V57.5ZM57.5971 57.5H57.5783V60H57.5971V57.5ZM57.5783 57.5H57.5595V60H57.5783V57.5ZM57.5595 57.5H57.5409V60H57.5595V57.5ZM57.5409 57.5H57.5224V60H57.5409V57.5ZM57.5224 57.5H57.504V60H57.5224V57.5ZM57.504 57.5H57.4856V60H57.504V57.5ZM57.4856 57.5H57.4674V60H57.4856V57.5ZM57.4674 57.5H57.4493V60H57.4674V57.5ZM57.4493 57.5H57.4312V60H57.4493V57.5ZM57.4312 57.5H57.4133V60H57.4312V57.5ZM57.4133 57.5H57.3955V60H57.4133V57.5ZM57.3955 57.5H57.3778V60H57.3955V57.5ZM57.3778 57.5H57.3601V60H57.3778V57.5ZM57.3601 57.5H57.3426V60H57.3601V57.5ZM57.3426 57.5H57.3252V60H57.3426V57.5ZM57.3252 57.5H57.3079V60H57.3252V57.5ZM57.3079 57.5H57.2907V60H57.3079V57.5ZM57.2907 57.5H57.2736V60H57.2907V57.5ZM57.2736 57.5H57.2566V60H57.2736V57.5ZM57.2566 57.5H57.2397V60H57.2566V57.5ZM57.2397 57.5H57.2229V60H57.2397V57.5ZM57.2229 57.5H57.2062V60H57.2229V57.5ZM57.2062 57.5H57.1896V60H57.2062V57.5ZM57.1896 57.5H57.1731V60H57.1896V57.5ZM57.1731 57.5H57.1567V60H57.1731V57.5ZM57.1567 57.5H57.1405V60H57.1567V57.5ZM57.1405 57.5H57.1243V60H57.1405V57.5ZM57.1243 57.5H57.1082V60H57.1243V57.5ZM57.1082 57.5H57.0923V60H57.1082V57.5ZM57.0923 57.5H57.0764V60H57.0923V57.5ZM57.0764 57.5H57.0607V60H57.0764V57.5ZM57.0607 57.5H57.045V60H57.0607V57.5ZM57.045 57.5H57.0295V60H57.045V57.5ZM57.0295 57.5H57.0141V60H57.0295V57.5ZM57.0141 57.5H56.9988V60H57.0141V57.5ZM56.9988 57.5H56.9836V60H56.9988V57.5ZM56.9836 57.5H56.9684V60H56.9836V57.5ZM56.9684 57.5H56.9535V60H56.9684V57.5ZM56.9535 57.5H56.9386V60H56.9535V57.5ZM56.9386 57.5H56.9238V60H56.9386V57.5ZM56.9238 57.5H56.9091V60H56.9238V57.5ZM56.9091 57.5H56.8945V60H56.9091V57.5ZM56.8945 57.5H56.8801V60H56.8945V57.5ZM56.8801 57.5H56.8657V60H56.8801V57.5ZM56.8657 57.5H56.8515V60H56.8657V57.5ZM56.8515 57.5H56.8374V60H56.8515V57.5ZM56.8374 57.5H56.8234V60H56.8374V57.5ZM56.8234 57.5H56.8094V60H56.8234V57.5ZM56.8094 57.5H56.7956V60H56.8094V57.5ZM56.7956 57.5H56.782V60H56.7956V57.5ZM56.782 57.5H56.7684V60H56.782V57.5ZM56.7684 57.5H56.7549V60H56.7684V57.5ZM56.7549 57.5H56.7416V60H56.7549V57.5ZM56.7416 57.5H56.7283V60H56.7416V57.5ZM56.7283 57.5H56.7152V60H56.7283V57.5ZM56.7152 57.5H56.7022V60H56.7152V57.5ZM56.7022 57.5H56.6892V60H56.7022V57.5ZM56.6892 57.5H56.6765V60H56.6892V57.5ZM56.6765 57.5H56.6638V60H56.6765V57.5ZM56.6638 57.5H56.6512V60H56.6638V57.5ZM56.6512 57.5H56.6387V60H56.6512V57.5ZM56.6387 57.5H56.6264V60H56.6387V57.5ZM56.6264 57.5H56.6141V60H56.6264V57.5ZM56.6141 57.5H56.602V60H56.6141V57.5ZM56.602 57.5H56.59V60H56.602V57.5ZM56.59 57.5H56.5781V60H56.59V57.5ZM56.5781 57.5H56.5663V60H56.5781V57.5ZM56.5663 57.5H56.5547V60H56.5663V57.5ZM56.5547 57.5H56.5431V60H56.5547V57.5ZM56.5431 57.5H56.5317V60H56.5431V57.5ZM56.5317 57.5H56.5204V60H56.5317V57.5ZM56.5204 57.5H56.5092V60H56.5204V57.5ZM56.5092 57.5H56.4981V60H56.5092V57.5ZM56.4981 57.5H56.4871V60H56.4981V57.5ZM56.4871 57.5H56.4762V60H56.4871V57.5ZM56.4762 57.5H56.4655V60H56.4762V57.5ZM56.4655 57.5H56.4549V60H56.4655V57.5ZM56.4549 57.5H56.4444V60H56.4549V57.5ZM56.4444 57.5H56.434V60H56.4444V57.5ZM56.434 57.5H56.4237V60H56.434V57.5ZM56.4237 57.5H56.4135V60H56.4237V57.5ZM56.4135 57.5H56.4035V60H56.4135V57.5ZM56.4035 57.5H56.3936V60H56.4035V57.5ZM56.3936 57.5H56.3838V60H56.3936V57.5ZM56.3838 57.5H56.3741V60H56.3838V57.5ZM56.3741 57.5H56.3645V60H56.3741V57.5ZM56.3645 57.5H56.355V60H56.3645V57.5ZM56.355 57.5H56.3457V60H56.355V57.5ZM56.3457 57.5H56.3365V60H56.3457V57.5ZM56.3365 57.5H56.3274V60H56.3365V57.5ZM56.3274 57.5H56.3184V60H56.3274V57.5ZM56.3184 57.5H56.3096V60H56.3184V57.5ZM56.3096 57.5H56.3008V60H56.3096V57.5ZM56.3008 57.5H56.2922V60H56.3008V57.5ZM56.2922 57.5H56.2837V60H56.2922V57.5ZM56.2837 57.5H56.2753V60H56.2837V57.5ZM56.2753 57.5H56.2671V60H56.2753V57.5ZM56.2671 57.5H56.2589V60H56.2671V57.5ZM56.2589 57.5H56.2509V60H56.2589V57.5ZM56.2509 57.5H56.243V60H56.2509V57.5ZM56.243 57.5H56.2353V60H56.243V57.5ZM56.2353 57.5H56.2276V60H56.2353V57.5ZM56.2276 57.5H56.2201V60H56.2276V57.5ZM56.2201 57.5H56.2127V60H56.2201V57.5ZM56.2127 57.5H56.2054V60H56.2127V57.5ZM56.2054 57.5H56.1983V60H56.2054V57.5ZM56.1983 57.5H56.1912V60H56.1983V57.5ZM56.1912 57.5H56.1843V60H56.1912V57.5ZM56.1843 57.5H56.1775V60H56.1843V57.5ZM56.1775 57.5H56.1709V60H56.1775V57.5ZM56.1709 57.5H56.1643V60H56.1709V57.5ZM56.1643 57.5H56.1579V60H56.1643V57.5ZM56.1579 57.5H56.1516V60H56.1579V57.5ZM56.1516 57.5H56.1454V60H56.1516V57.5ZM56.1454 57.5H56.1394V60H56.1454V57.5ZM56.1394 57.5H56.1335V60H56.1394V57.5ZM56.1335 57.5H56.1277V60H56.1335V57.5ZM56.1277 57.5H56.122V60H56.1277V57.5ZM56.122 57.5H56.1165V60H56.122V57.5ZM56.1165 57.5H56.111V60H56.1165V57.5ZM56.111 57.5H56.1058V60H56.111V57.5ZM56.1058 57.5H56.1006V60H56.1058V57.5ZM56.1006 57.5H56.0955V60H56.1006V57.5ZM56.0955 57.5H56.0906V60H56.0955V57.5ZM56.0906 57.5H56.0859V60H56.0906V57.5ZM56.0859 57.5H56.0812V60H56.0859V57.5ZM56.0812 57.5H56.0767V60H56.0812V57.5ZM56.0767 57.5H56.0723V60H56.0767V57.5ZM56.0723 57.5H56.068V60H56.0723V57.5ZM56.068 57.5H56.0638V60H56.068V57.5ZM56.0638 57.5H56.0598V60H56.0638V57.5ZM56.0598 57.5H56.0559V60H56.0598V57.5ZM56.0559 57.5H56.0522V60H56.0559V57.5ZM56.0522 57.5H56.0485V60H56.0522V57.5ZM56.0485 57.5H56.045V60H56.0485V57.5ZM56.045 57.5H56.0417V60H56.045V57.5ZM56.0417 57.5H56.0384V60H56.0417V57.5ZM56.0384 57.5H56.0353V60H56.0384V57.5ZM56.0353 57.5H56.0323V60H56.0353V57.5ZM56.0323 57.5H56.0295V60H56.0323V57.5ZM56.0295 57.5H56.0267V60H56.0295V57.5ZM56.0267 57.5H56.0241V60H56.0267V57.5ZM56.0241 57.5H56.0217V60H56.0241V57.5ZM56.0217 57.5H56.0193V60H56.0217V57.5ZM56.0193 57.5H56.0171V60H56.0193V57.5ZM56.0171 57.5H56.0151V60H56.0171V57.5ZM56.0151 57.5H56.0131V60H56.0151V57.5ZM56.0131 57.5H56.0113V60H56.0131V57.5ZM56.0113 57.5H56.0097V60H56.0113V57.5ZM56.0097 57.5H56.0081V60H56.0097V57.5ZM56.0081 57.5H56.0067V60H56.0081V57.5ZM56.0067 57.5H56.0054V60H56.0067V57.5ZM56.0054 57.5H56.0043V60H56.0054V57.5ZM56.0043 57.5H56.0033V60H56.0043V57.5ZM56.0033 57.5H56.0024V60H56.0033V57.5ZM56.0024 57.5H56.0017V60H56.0024V57.5ZM56.0017 57.5H56.0011V60H56.0017V57.5ZM56.0011 57.5H56.0006V60H56.0011V57.5ZM56.0006 57.5H56.0003V60H56.0006V57.5ZM56.0003 57.5H56.0001V60H56.0003V57.5ZM54.7501 58.7499L54.75 59.9999L57.25 60.0001L57.2501 58.7501L54.7501 58.7499Z" fill="#41A2F9"/>
<path d="M56.9332 6.47102L56 7.30273L56.9332 6.47102ZM68.0328 18.9241L68.9659 18.0924L68.0328 18.9241ZM67.9313 20.689L68.7631 21.6221L68.7631 21.6221L67.9313 20.689ZM66.1665 20.5876L65.2333 21.4193L66.1665 20.5876ZM55.0669 8.13445L56 7.30273L56 7.30273L55.0669 8.13445ZM107.166 6.47102L106.233 5.6393V5.6393L107.166 6.47102ZM109.033 8.13445L109.966 8.96617V8.96617L109.033 8.13445ZM97.9332 20.5876L98.8663 21.4193L98.8663 21.4193L97.9332 20.5876ZM96.1683 20.689L95.3366 21.6221L95.3366 21.6221L96.1683 20.689ZM96.0669 18.9241L95.1337 18.0924L95.1337 18.0924L96.0669 18.9241ZM84.5996 3C84.5996 1.61929 83.4803 0.5 82.0996 0.5V3H84.5996ZM84.5996 19.7559V3H82.0996V19.7559H84.5996ZM82.0996 22.2559C83.4803 22.2559 84.5996 21.1366 84.5996 19.7559H82.0996V22.2559ZM79.5996 19.7559C79.5996 21.1366 80.7189 22.2559 82.0996 22.2559V19.7559H79.5996ZM79.5996 3V19.7559H82.0996V3H79.5996ZM82.0996 0.5C80.7189 0.5 79.5996 1.61929 79.5996 3H82.0996V0.5ZM57.8663 5.6393C56.9476 4.60858 55.3673 4.51777 54.3366 5.43646L56 7.30273L57.8663 5.6393ZM68.9659 18.0924L57.8663 5.6393L56 7.30273L67.0996 19.7559L68.9659 18.0924ZM68.7631 21.6221C69.7938 20.7034 69.8846 19.1231 68.9659 18.0924L67.0996 19.7559L67.0996 19.7559L68.7631 21.6221ZM65.2333 21.4193C66.152 22.45 67.7323 22.5408 68.7631 21.6221L67.0996 19.7559H67.0996L65.2333 21.4193ZM54.1337 8.96617L65.2333 21.4193L67.0996 19.7559L56 7.30273L54.1337 8.96617ZM54.3366 5.43646C53.3059 6.35515 53.215 7.93545 54.1337 8.96617L56 7.30273L56 7.30273L54.3366 5.43646ZM109.763 5.43646C108.732 4.51777 107.152 4.60859 106.233 5.6393L108.1 7.30274L108.1 7.30273L109.763 5.43646ZM109.966 8.96617C110.885 7.93545 110.794 6.35515 109.763 5.43646L108.1 7.30273L108.1 7.30274L109.966 8.96617ZM98.8663 21.4193L109.966 8.96617L108.1 7.30273L97 19.7559L98.8663 21.4193ZM95.3366 21.6221C96.3673 22.5408 97.9476 22.45 98.8663 21.4193L97 19.7559L97 19.7559L95.3366 21.6221ZM95.1337 18.0924C94.215 19.1231 94.3059 20.7034 95.3366 21.6221L97 19.7559L97 19.7559L95.1337 18.0924ZM106.233 5.6393L95.1337 18.0924L97 19.7559L108.1 7.30273L106.233 5.6393Z" fill="#81C0F8"/>
</svg>
