<svg width="216" height="99" viewBox="0 0 216 99" fill="none" xmlns="http://www.w3.org/2000/svg">
<path fill-rule="evenodd" clip-rule="evenodd" d="M39 84C39 87.866 42.134 91 46 91H192C195.866 91 199 87.866 199 84C199 80.134 195.866 77 192 77H186C182.134 77 179 73.866 179 70C179 66.134 182.134 63 186 63H205C208.866 63 212 59.866 212 56C212 52.134 208.866 49 205 49H183C186.866 49 190 45.866 190 42C190 38.134 186.866 35 183 35H119C122.866 35 126 31.866 126 28C126 24.134 122.866 21 119 21H62C58.134 21 55 24.134 55 28C55 31.866 58.134 35 62 35H22C18.134 35 15 38.134 15 42C15 45.866 18.134 49 22 49H47C50.866 49 54 52.134 54 56C54 59.866 50.866 63 47 63H7C3.13401 63 0 66.134 0 70C0 73.866 3.13401 77 7 77H46C42.134 77 39 80.134 39 84ZM209 91C212.866 91 216 87.866 216 84C216 80.134 212.866 77 209 77C205.134 77 202 80.134 202 84C202 87.866 205.134 91 209 91Z" fill="#E8F0FE"/>
<path fill-rule="evenodd" clip-rule="evenodd" d="M75 97C62.8497 97 53 87.3741 53 75.5C53 63.6259 62.8497 54 75 54C75.5167 54 76.0292 54.0174 76.537 54.0517C76.1842 52.0878 76 50.0654 76 48C76 29.2223 91.2223 14 110 14C124.991 14 137.716 23.702 142.239 37.1695C143.31 37.0575 144.398 37 145.5 37C162.345 37 176 50.4315 176 67C176 82.7406 163.675 95.7273 148 96.9782V97H91.5078M86.996 97H80.0314H86.996Z" fill="white"/>
<path d="M75 98.25C75.6904 98.25 76.25 97.6904 76.25 97C76.25 96.3096 75.6904 95.75 75 95.75V98.25ZM76.537 54.0517L76.4529 55.2988L78.0504 55.4066L77.7673 53.8306L76.537 54.0517ZM142.239 37.1695L141.054 37.5674L141.372 38.5169L142.369 38.4127L142.239 37.1695ZM148 96.9782L147.901 95.7321L146.75 95.824V96.9782H148ZM148 97V98.25H149.25V97H148ZM91.5078 95.75C90.8175 95.75 90.2578 96.3096 90.2578 97C90.2578 97.6904 90.8175 98.25 91.5078 98.25V95.75ZM86.996 98.25C87.6863 98.25 88.246 97.6904 88.246 97C88.246 96.3096 87.6863 95.75 86.996 95.75V98.25ZM80.0314 95.75C79.341 95.75 78.7814 96.3096 78.7814 97C78.7814 97.6904 79.341 98.25 80.0314 98.25V95.75ZM75 95.75C63.5128 95.75 54.25 86.6568 54.25 75.5H51.75C51.75 88.0914 62.1866 98.25 75 98.25V95.75ZM54.25 75.5C54.25 64.3432 63.5128 55.25 75 55.25V52.75C62.1866 52.75 51.75 62.9086 51.75 75.5H54.25ZM75 55.25C75.4886 55.25 75.9731 55.2665 76.4529 55.2988L76.6211 52.8045C76.0853 52.7684 75.5448 52.75 75 52.75V55.25ZM77.7673 53.8306C77.4275 51.9394 77.25 49.991 77.25 48H74.75C74.75 50.1399 74.9408 52.2362 75.3067 54.2727L77.7673 53.8306ZM77.25 48C77.25 29.9127 91.9127 15.25 110 15.25V12.75C90.532 12.75 74.75 28.532 74.75 48H77.25ZM110 15.25C124.438 15.25 136.697 24.5936 141.054 37.5674L143.424 36.7716C138.735 22.8104 125.544 12.75 110 12.75V15.25ZM142.369 38.4127C143.397 38.3052 144.442 38.25 145.5 38.25V35.75C144.355 35.75 143.223 35.8097 142.109 35.9263L142.369 38.4127ZM145.5 38.25C161.674 38.25 174.75 51.1412 174.75 67H177.25C177.25 49.7217 163.015 35.75 145.5 35.75V38.25ZM174.75 67C174.75 82.0705 162.945 94.5317 147.901 95.7321L148.099 98.2242C164.406 96.923 177.25 83.4108 177.25 67H174.75ZM146.75 96.9782V97H149.25V96.9782H146.75ZM148 95.75H91.5078V98.25H148V95.75ZM86.996 95.75H80.0314V98.25H86.996V95.75Z" fill="#41A2F9"/>
<circle cx="110.5" cy="77.5" r="5.5" stroke="#41A2F9" stroke-width="2.5"/>
<path d="M95 66L102 60.5068L95 55.2776" stroke="#41A2F9" stroke-width="2.5" stroke-linecap="round" stroke-linejoin="round"/>
<path d="M126 66L119 60.5068L126 55.2776" stroke="#41A2F9" stroke-width="2.5" stroke-linecap="round" stroke-linejoin="round"/>
<ellipse rx="6.72014" ry="6.64659" transform="matrix(-1 0 0 1 126.72 30.6466)" stroke="#81C0F8" stroke-width="2.5" stroke-linecap="round"/>
<circle cx="141" cy="4" r="3" stroke="#81C0F8" stroke-width="2"/>
<circle cx="172" cy="20" r="3" fill="#81C0F8"/>
<path d="M147.873 13.8735L148.757 14.7574L148.757 14.7574L147.873 13.8735ZM149.641 13.8735L150.525 12.9896L149.641 13.8735ZM147.873 15.6413L146.99 16.5252V16.5252L147.873 15.6413ZM151.232 19L152.116 19.8839C152.604 19.3958 152.604 18.6043 152.116 18.1161L151.232 19ZM148 22.2317L147.117 21.3478L147.117 21.3478L148 22.2317ZM148 23.9995L148.884 23.1156L148 23.9995ZM149.768 23.9995L150.652 24.8834H150.652L149.768 23.9995ZM153 20.7678L153.884 19.8839C153.396 19.3958 152.604 19.3958 152.116 19.8839L153 20.7678ZM156.232 23.9995L155.348 24.8834H155.348L156.232 23.9995ZM157.999 22.2317L158.883 21.3478V21.3478L157.999 22.2317ZM154.768 19L153.884 18.1161C153.649 18.3506 153.518 18.6685 153.518 19C153.518 19.3315 153.649 19.6495 153.884 19.8839L154.768 19ZM158.126 15.6413L159.01 16.5252V16.5252L158.126 15.6413ZM158.126 13.8735L157.243 14.7574V14.7574L158.126 13.8735ZM156.359 13.8735L155.475 12.9896L155.475 12.9896L156.359 13.8735ZM153 17.2323L152.116 18.1161C152.604 18.6043 153.396 18.6043 153.884 18.1161L153 17.2323ZM148.757 14.7574V14.7574L150.525 12.9896C149.549 12.0133 147.966 12.0133 146.99 12.9896L148.757 14.7574ZM148.757 14.7574L148.757 14.7574L146.99 12.9896C146.013 13.9659 146.013 15.5488 146.99 16.5252L148.757 14.7574ZM152.116 18.1161L148.757 14.7574L146.99 16.5252L150.348 19.8839L152.116 18.1161ZM148.884 23.1156L152.116 19.8839L150.348 18.1161L147.117 21.3478L148.884 23.1156ZM148.884 23.1156L148.884 23.1156L147.117 21.3478C146.14 22.3242 146.14 23.9071 147.117 24.8834L148.884 23.1156ZM148.884 23.1156H148.884L147.117 24.8834C148.093 25.8597 149.676 25.8597 150.652 24.8834L148.884 23.1156ZM152.116 19.8839L148.884 23.1156L150.652 24.8834L153.884 21.6517L152.116 19.8839ZM157.116 23.1156L153.884 19.8839L152.116 21.6517L155.348 24.8834L157.116 23.1156ZM157.116 23.1156H157.116L155.348 24.8834C156.324 25.8597 157.907 25.8597 158.883 24.8834L157.116 23.1156ZM157.116 23.1156V23.1156L158.883 24.8834C159.86 23.9071 159.86 22.3242 158.883 21.3478L157.116 23.1156ZM153.884 19.8839L157.116 23.1156L158.883 21.3478L155.652 18.1161L153.884 19.8839ZM157.243 14.7574L153.884 18.1161L155.652 19.8839L159.01 16.5252L157.243 14.7574ZM157.243 14.7574L159.01 16.5252C159.987 15.5488 159.987 13.9659 159.01 12.9896L157.243 14.7574ZM157.243 14.7574L157.243 14.7574L159.01 12.9896C158.034 12.0133 156.451 12.0133 155.475 12.9896L157.243 14.7574ZM153.884 18.1161L157.243 14.7574L155.475 12.9896L152.116 16.3484L153.884 18.1161ZM148.757 14.7574L152.116 18.1161L153.884 16.3484L150.525 12.9896L148.757 14.7574Z" fill="#81C0F8"/>
<path d="M57.4038 33.8284L56.5199 34.7123C57.0081 35.2005 57.7995 35.2005 58.2877 34.7123L57.4038 33.8284ZM55.636 35.5962L56.5199 36.4801C57.0081 35.9919 57.0081 35.2005 56.5199 34.7123L55.636 35.5962ZM57.4038 37.364L58.2877 36.4801C57.7995 35.9919 57.0081 35.9919 56.5199 36.4801L57.4038 37.364ZM59.1716 35.5962L58.2877 34.7123C57.7995 35.2005 57.7995 35.9919 58.2877 36.4801L59.1716 35.5962ZM60.4038 32.5962V32.5962L62.1716 34.364C63.1479 33.3876 63.1479 31.8047 62.1716 30.8284L60.4038 32.5962ZM60.4038 32.5962L62.1716 30.8284C61.1953 29.8521 59.6124 29.8521 58.636 30.8284L60.4038 32.5962ZM58.2877 34.7123L60.4038 32.5962L58.636 30.8284L56.5199 32.9445L58.2877 34.7123ZM54.4038 32.5962L56.5199 34.7123L58.2877 32.9445L56.1716 30.8284L54.4038 32.5962ZM54.4038 32.5962H54.4038L56.1716 30.8284C55.1953 29.8521 53.6124 29.8521 52.636 30.8284L54.4038 32.5962ZM54.4038 32.5962V32.5962L52.636 30.8284C51.6597 31.8047 51.6597 33.3876 52.636 34.364L54.4038 32.5962ZM56.5199 34.7123L54.4038 32.5962L52.636 34.364L54.7522 36.4801L56.5199 34.7123ZM54.4038 38.5962L56.5199 36.4801L54.7522 34.7123L52.636 36.8284L54.4038 38.5962ZM54.4038 38.5962L52.636 36.8284C51.6597 37.8047 51.6597 39.3876 52.636 40.364L54.4038 38.5962ZM54.4038 38.5962H54.4038L52.636 40.364C53.6124 41.3403 55.1953 41.3403 56.1716 40.364L54.4038 38.5962ZM56.5199 36.4801L54.4038 38.5962L56.1716 40.364L58.2877 38.2478L56.5199 36.4801ZM60.4038 38.5962L58.2877 36.4801L56.5199 38.2478L58.636 40.364L60.4038 38.5962ZM60.4038 38.5962L58.636 40.364C59.6124 41.3403 61.1953 41.3403 62.1716 40.364L60.4038 38.5962ZM60.4038 38.5962L62.1716 40.364C63.1479 39.3876 63.1479 37.8047 62.1716 36.8284L60.4038 38.5962ZM58.2877 36.4801L60.4038 38.5962L62.1716 36.8284L60.0555 34.7123L58.2877 36.4801ZM60.4038 32.5962L58.2877 34.7123L60.0555 36.4801L62.1716 34.364L60.4038 32.5962Z" fill="#81C0F8"/>
<circle cx="68" cy="23" r="3" fill="#81C0F8"/>
</svg>
